<?xml version="1.0" standalone="no"?>
<!DOCTYPE svg PUBLIC "-//W3C//DTD SVG 1.1//EN" "http://www.w3.org/Graphics/SVG/1.1/DTD/svg11.dtd">
<svg width="100%" height="100%" viewBox="0 0 200 40" version="1.1" xmlns="http://www.w3.org/2000/svg" xmlns:xlink="http://www.w3.org/1999/xlink" xml:space="preserve" style="fill-rule:evenodd;clip-rule:evenodd;stroke-linejoin:round;stroke-miterlimit:1.41421;">
    <g transform="matrix(0.115875,0,0,0.115875,-37.251,-76.456)">
        <g id="Layer1">
            <g>
                <g transform="matrix(0.962929,0,0,0.962929,685.983,-698.938)">
                    <text x="545.463px" y="1670.29px" style="font-family:Hiragino Kaku Gothic Std;font-size:207.7px;font-weight:800;fill:rgb(27,209,243);">Therm</text>
                </g>
                <text x="324.63px" y="906.285px" style="font-family:Hiragino Kaku Gothic Std;font-size:179.141px;font-weight:800;fill:rgb(29,69,76);">Musculo</text>
                <g transform="matrix(4.37489e-05,-0.23211,1.69697,0.000319851,31.5586,1066.56)">
                    <rect x="1406.31" y="694.506" width="38.669" height="487.818" style="fill:rgb(30,151,174);"/>
                </g>
                <g transform="matrix(0.672314,0,0,2.59162,1026.88,-2003.53)">
                    <path d="M1468.91,1055.48C1468.91,1055.48 1424.47,1097.47 1424.47,1115.46C1424.47,1121.82 1444.38,1126.99 1468.91,1126.99C1493.43,1126.99 1513.34,1121.82 1513.34,1115.46C1513.34,1097.47 1468.91,1055.48 1468.91,1055.48Z" style="fill:rgb(30,151,174);"/>
                </g>
            </g>
        </g>
    </g>
</svg>
